<?xml version="1.0" standalone="no"?>
<!DOCTYPE svg PUBLIC "-//W3C//DTD SVG 20010904//EN"
 "http://www.w3.org/TR/2001/REC-SVG-20010904/DTD/svg10.dtd">
<svg version="1.0" xmlns="http://www.w3.org/2000/svg"
 width="300.000000pt" height="300.000000pt" viewBox="0 0 300.000000 300.000000"
 preserveAspectRatio="xMidYMid meet">
<metadata>
Created by potrace 1.10, written by Peter Selinger 2001-2011
</metadata>
<g transform="translate(0.000000,300.000000) scale(0.100000,-0.100000)"
fill="#000000" stroke="none">
<path d="M982 2375 c-19 -56 -339 -950 -347 -967 -5 -12 -3 -18 6 -18 9 0 32
54 63 143 27 78 51 145 55 149 3 4 99 8 213 10 l208 3 52 -152 53 -153 93 0
c50 0 92 3 92 8 0 4 -85 231 -189 505 l-188 499 -51 2 c-47 1 -51 0 -60 -29z
m92 -32 c14 -29 80 -199 190 -498 20 -55 41 -109 46 -120 5 -11 26 -65 45
-120 20 -55 40 -110 46 -123 18 -44 12 -52 -36 -52 -58 0 -46 -23 -178 340
-24 69 -55 152 -67 185 -44 121 -120 350 -120 362 0 15 36 53 50 53 5 0 16
-12 24 -27z m-94 -78 c0 -19 121 -369 185 -537 7 -17 -7 -18 -195 -18 -188 0
-202 1 -197 18 3 9 46 133 96 276 50 142 91 265 91 273 0 8 5 11 10 8 6 -3 10
-12 10 -20z"/>
<path d="M2008 1923 c-9 -26 -55 -156 -102 -287 -75 -211 -90 -264 -71 -244 6
6 124 336 150 420 l18 57 48 -142 c27 -78 64 -185 82 -237 l35 -95 87 -3 c81
-3 87 -1 80 15 -4 10 -54 140 -110 288 l-102 270 -49 3 -50 3 -16 -48z m90 -5
c11 -15 168 -432 173 -463 3 -17 -2 -21 -33 -23 -37 -3 -38 -2 -61 50 -13 29
-50 130 -82 224 -41 122 -56 178 -51 197 7 29 36 37 54 15z"/>
<path d="M1152 1325 c-7 -16 -17 -42 -23 -57 l-11 -26 -55 19 c-73 25 -103 25
-103 0 0 -22 51 -68 85 -77 25 -6 65 10 65 26 0 19 39 10 51 -11 8 -17 13 -19
19 -8 7 10 11 10 24 0 11 -9 16 -10 16 -2 0 11 48 12 65 1 13 -9 157 -7 172 3
6 4 23 2 36 -4 27 -12 67 2 67 23 0 9 -3 9 -12 0 -13 -13 -51 -16 -62 -5 -13
13 -39 12 -62 -4 -25 -16 -44 -11 -44 13 0 19 -9 18 -45 -6 -23 -15 -32 -17
-44 -7 -7 7 -32 12 -55 13 -23 1 -46 2 -53 3 -8 1 -13 25 -15 69 -3 64 -4 66
-16 37z m8 -60 c0 -24 -5 -35 -15 -35 -18 0 -18 -1 -4 39 14 40 19 39 19 -4z
m-74 -26 l29 -11 -23 -18 c-19 -15 -28 -17 -50 -9 -32 12 -73 49 -67 59 5 8
65 -3 111 -21z"/>
<path d="M1784 1298 c-14 -35 -25 -52 -35 -49 -106 31 -129 35 -140 24 -16
-16 3 -47 45 -72 42 -26 68 -27 91 -1 10 11 27 20 37 20 11 0 22 -9 25 -20 3
-11 10 -20 15 -20 5 0 6 5 3 10 -3 6 2 10 11 10 17 0 17 1 1 13 -12 8 -20 33
-25 75 l-7 63 -21 -53z m-60 -58 c31 -11 31 -13 10 -35 -18 -18 -44 -13 -86
17 -42 29 -37 48 11 37 21 -5 50 -13 65 -19z"/>
<path d="M1957 1220 c-7 -26 -53 -28 -60 -2 -4 14 -6 13 -13 -7 -7 -23 -8 -24
-15 -5 -7 18 -8 17 -8 -3 -1 -20 3 -22 38 -19 21 2 43 6 49 10 6 3 13 2 17 -4
9 -15 47 -12 69 5 28 21 12 30 -18 10 -29 -19 -46 -13 -41 15 5 26 -11 26 -18
0z"/>
<path d="M1710 1089 c0 -6 -10 -33 -21 -60 -25 -58 -58 -79 -120 -79 -23 0
-39 -3 -35 -7 11 -11 356 -12 356 -2 0 5 -17 9 -37 9 -72 0 -114 12 -130 36
-14 22 -14 29 -1 69 13 37 13 45 2 45 -8 0 -14 -5 -14 -11z"/>
<path d="M2286 1073 c4 -16 8 -44 8 -63 1 -41 -27 -60 -91 -60 -24 0 -43 -4
-43 -8 0 -4 94 -8 210 -7 115 0 210 3 210 8 0 4 -8 7 -19 7 -32 0 -68 38 -92
95 l-23 55 -84 0 -84 0 8 -27z m149 -44 c23 -44 14 -59 -38 -59 -50 0 -67 13
-67 50 0 35 6 40 51 40 33 0 41 -5 54 -31z"/>
<path d="M672 1043 c-16 -28 -15 -29 8 -29 22 0 22 2 11 31 -8 19 -8 19 -19
-2z"/>
<path d="M750 1035 c0 -16 6 -25 15 -25 8 0 15 7 15 15 0 8 -6 15 -12 15 -9 0
-8 4 2 10 13 8 12 10 -2 10 -13 0 -18 -8 -18 -25z"/>
<path d="M830 1034 c0 -23 2 -24 15 -10 8 8 15 19 15 25 0 6 -7 11 -15 11 -9
0 -15 -10 -15 -26z"/>
<path d="M970 1037 c0 -13 6 -24 13 -24 7 0 14 11 15 24 1 15 -4 23 -13 23 -9
0 -15 -9 -15 -23z"/>
<path d="M1111 1039 c-1 -16 4 -26 14 -26 10 0 15 10 15 26 0 19 -3 22 -9 12
-7 -11 -9 -11 -14 0 -3 8 -6 2 -6 -12z"/>
<path d="M1194 1045 c-7 -18 3 -35 21 -35 18 0 26 15 19 34 -8 20 -33 21 -40
1z"/>
<path d="M1350 1045 c0 -8 6 -15 13 -15 8 0 7 -4 -3 -10 -13 -8 -12 -10 3 -10
9 0 17 7 17 15 0 8 -6 15 -12 15 -9 0 -8 4 2 10 13 8 12 10 -2 10 -10 0 -18
-7 -18 -15z"/>
<path d="M1430 1035 c0 -20 4 -26 18 -23 9 2 17 12 17 23 0 11 -8 21 -17 23
-14 3 -18 -3 -18 -23z"/>
<path d="M1514 1045 c-6 -15 2 -35 15 -35 4 0 7 11 7 25 0 27 -13 34 -22 10z"/>
</g>
</svg>
